<?xml version="1.0" encoding="UTF-8"?>
<svg width="2513px" height="2065px" viewBox="0 0 2513 2065" version="1.1" xmlns="http://www.w3.org/2000/svg" xmlns:xlink="http://www.w3.org/1999/xlink">
    <!-- Generator: Sketch 41.2 (35397) - http://www.bohemiancoding.com/sketch -->
    <title>scene</title>
    <desc>Created with Sketch.</desc>
    <defs>
        <polygon id="path-1" points="0 86.445 176 0 176 297 0 297"></polygon>
        <polygon id="path-3" points="0 24.343 305 0 305 213 0 213"></polygon>
        <polygon id="path-5" points="0 87.318 176 0 176 300 0 300"></polygon>
        <polyline id="path-7" points="305 24.343 0 0 0 213 305 213"></polyline>
        <polygon id="path-9" points="0 0 371 0 371 189 0 189"></polygon>
    </defs>
    <g id="Page-2" stroke="none" stroke-width="1" fill="none" fill-rule="evenodd">
        <g id="scene" transform="translate(0.000000, -491.000000)">
            <g id="Page-1">
                <g id="cageGroup">
                    <g id="ambienceGroup" transform="translate(0.000000, 491.000000)">
                        <polygon id="bg" fill="#848E9C" points="1 2065 2513 2065 2513 0 1 0"></polygon>
                        <path d="M0,1176 C0,1176 840.053,1097 1256,1097 C1671.947,1097 2512,1176 2512,1176 L2512,1994 L0,1994 L0,1176 Z" id="floor_contrast" fill="#7B8590"></path>
                        <path d="M0,618 C0,618 579.528,449 1218,449 C1856.472,449 2512,618 2512,618 L2512,0 L0,0 L0,618 Z" id="roof_contrast" fill="#808B98"></path>
                        <path d="M0,1236 C0,1236 840.053,1157 1256,1157 C1671.947,1157 2512,1236 2512,1236 L2512,2054 L0,2054 L0,1236 Z" id="floor" fill="#626B6F"></path>
                        <path d="M1392.994,1159.234 C1832.332,1172.084 2512,1236 2512,1236 L2512,2054 L375,2054 C375,2054 595.41,1709.193 850,1480 C1104.59,1250.807 1369.047,1158.534 1392.994,1159.234 L1392.994,1159.234 Z" id="floor_highlight" fill="#6E767A"></path>
                        <path d="M448.038,1198.32 C625.044,1184.816 828.668,1171.03 1008.278,1163.29 L1385.211,1159.01 C1561.827,1163.964 1778.688,1177.39 1974.834,1191.672 C1979.084,1191.982 1974.834,1301.505 1974.834,1301.505 L1682,1361 L837,1444 L361,1304 L448.038,1198.32 Z" id="cage_shadow" fill="#4A5256"></path>
                    </g>
                    <g id="cageBack" transform="translate(634.000000, 1318.000000)">
                        <g id="cage_frame_bg_piece-Clipped" transform="translate(1143.000000, 0.000000)">
                            <mask id="mask-2" fill="white">
                                <use xlink:href="#path-1"></use>
                            </mask>
                            <g id="path-215"></g>
                            <g id="cage_frame_bg_piece" mask="url(#mask-2)" stroke-width="16" stroke="#4F5558">
                                <polygon id="path-215" points="0 86.445 176 0 176 297 0 297"></polygon>
                            </g>
                        </g>
                        <g id="cage_frame_bg_piece-Clipped" transform="translate(844.000000, 85.000000)">
                            <mask id="mask-4" fill="white">
                                <use xlink:href="#path-3"></use>
                            </mask>
                            <g id="path-217"></g>
                            <g id="cage_frame_bg_piece" mask="url(#mask-4)" stroke-width="14" stroke="#4F5558">
                                <polygon id="path-217" points="0 24.343 305 0 305 213 0 213"></polygon>
                            </g>
                        </g>
                        <g id="cage_frame_bg_piece-Clipped">
                            <mask id="mask-6" fill="white">
                                <use xlink:href="#path-5"></use>
                            </mask>
                            <g id="path-219"></g>
                            <g id="cage_frame_bg_piece" mask="url(#mask-6)" stroke-width="16" stroke="#4F5558">
                                <g transform="translate(88.000000, 150.000000) scale(-1, 1) translate(-88.000000, -150.000000) " id="path-219">
                                    <polygon points="0 87.318 176 0 176 300 0 300"></polygon>
                                </g>
                            </g>
                        </g>
                        <g id="cage_frame_bg_piece-Clipped" transform="translate(170.000000, 85.000000)">
                            <mask id="mask-8" fill="white">
                                <use xlink:href="#path-7"></use>
                            </mask>
                            <g id="path-221"></g>
                            <g id="cage_frame_bg_piece" mask="url(#mask-8)" stroke-width="14" stroke="#4F5558">
                                <polyline id="path-221" points="305 24.343 0 0 0 213 305 213"></polyline>
                            </g>
                        </g>
                        <g id="cage_frame_bg_piece-Clipped" transform="translate(473.000000, 109.000000)">
                            <mask id="mask-10" fill="white">
                                <use xlink:href="#path-9"></use>
                            </mask>
                            <g id="path-223"></g>
                            <g id="cage_frame_bg_piece" mask="url(#mask-10)" stroke-width="14" stroke="#4F5558">
                                <polygon id="path-223" points="0 0 371 0 371 189 0 189"></polygon>
                            </g>
                        </g>
                    </g>
                    <g id="Fighters_mockup" transform="translate(1539.000000, 1366.000000)" fill="#3B444D">
                        <path d="M293.883,53.394 L294.291,53.366 L304.788,57.759 L315.962,64.179 L321.719,68.234 L321.725,68.354 L325.059,69.682 L330.202,86.422 L329.516,91.444 L335.002,111.197 L335.002,130.951 L333.906,133.668 L335.456,135.346 L343.002,150.412 L340.944,162.465 L338.176,167.095 L337.971,169.281 L336.561,169.796 L336.141,170.5 L333.967,171.7 L336.96,176.014 L340,200.209 L350.542,201.776 L373.086,209.813 L389.594,228.739 L421.124,249.147 L421.862,254.72 L409.534,268.505 L395.75,281.318 L389.944,285.668 L385.102,287.112 L381.949,284.926 L394.981,259.273 L392.299,250.305 L370.233,238.877 L344.039,222.355 L337.011,220.645 L334.143,217.88 C330.647,217.294 325.486,214.755 325.486,214.755 L323.028,211.605 L311.741,197.748 L307.491,188.714 L305.947,189.921 L279.873,198.291 L271.343,201.427 L272.583,203.103 L282.843,224.727 L281.133,249.783 L288.997,286.509 L285.577,290.971 L267.113,292.001 L248.307,291.315 L241.127,290.285 L236.681,287.882 L235.997,284.108 L263.352,275.184 L267.797,266.946 L260.274,243.263 L253.436,213.059 L249.673,206.881 L249.543,199.761 L248.996,192.267 L249.396,191.489 L249.331,188.003 L251.155,188.053 L253.112,184.233 L263.747,175.863 L267.177,172.849 L269.597,171.024 L264.707,163.611 L258.494,156.109 L246.247,136.077 L245.451,137.004 L242.807,130.45 L239.077,124.347 L238.032,118.977 C238.032,118.977 239.312,117.953 240.994,116.807 L240.994,106.202 L246.48,86.449 L245.794,81.427 L250.937,64.687 L252.56,64.041 L252.184,63.859 L252.184,56.069 L256.867,54.036 L250.177,50.31 C250.177,50.31 249.509,49.372 249.509,48.617 C249.509,47.862 250.177,46.247 250.177,46.247 C250.177,46.247 249.517,46.147 248.727,45.997 L243.017,48.899 L236.457,45.741 L234.04,43.285 L224.372,43.987 L205.727,51.005 L192.952,50.303 C192.952,50.303 191.104,49.343 189.314,48.039 L186.384,49.351 L180.592,49.031 L169.804,53.089 L169.804,53.859 L167.434,55.009 L152.201,86.542 L153.631,87.338 L159.444,87.005 L167.994,103.338 L141.319,114.338 L138.765,115.732 L127.611,140.228 L126.738,144.598 L139.718,151.468 L154.813,162.851 L158.243,165.864 L168.878,174.234 L170.836,178.054 L172.661,178.004 L172.597,181.49 L172.997,182.268 L172.449,189.762 L172.319,196.882 L168.559,203.06 L161.719,233.265 L154.197,256.949 L158.642,265.187 L185.997,274.111 L185.313,277.886 L180.868,280.29 L173.688,281.32 L154.882,282.006 L136.417,280.976 L132.997,276.514 L140.862,239.788 L139.152,214.732 L149.41,193.108 L150.652,191.432 L142.122,188.297 L116.048,179.927 L114.504,178.721 L110.254,187.755 L98.969,201.613 L96.512,204.763 C96.512,204.763 91.352,207.301 87.855,207.887 L84.987,210.653 L77.959,212.363 L51.765,228.883 L29.699,240.313 L27.017,249.28 L40.05,274.933 L36.898,277.119 L32.056,275.675 L26.25,271.325 L12.466,258.512 L0.138,244.728 L0.875,239.156 L32.405,218.748 L48.915,199.822 L71.458,191.785 L82,190.219 L85.04,166.025 L88.034,161.711 L85.861,160.511 L85.441,159.807 L84.031,159.292 L83.827,157.107 L81.059,152.477 L79.001,140.423 L86.548,125.357 L87.401,124.432 L86.001,120.962 L86.001,101.207 L91.487,81.454 L90.801,76.432 L95.944,59.692 L101.196,57.602 L106.04,54.189 L117.213,47.769 L127.709,43.375 L128.116,43.403 L133.686,29.138 L131.344,14.573 L142.717,0 C142.717,0 155.771,0.01 160.444,1.355 C165.117,2.699 169.81,7.79 169.81,7.79 C169.81,7.79 171.282,8.878 171.482,9.484 C171.682,10.09 171.097,11.702 171.097,11.702 L173.823,19.984 C173.823,19.984 174.54,23.44 174.158,24.048 C173.775,24.658 172.485,24.388 172.485,24.388 L175.83,33.194 C175.83,33.194 176.013,33.939 176,34.554 L186.732,33.962 L190.48,33 L194.43,34.635 L207.46,31 L224.033,32.404 L247.963,31.156 C248.071,30.494 248.177,29.984 248.177,29.984 L250.903,21.702 C250.903,21.702 250.318,20.09 250.518,19.484 C250.718,18.878 252.19,17.79 252.19,17.79 C252.19,17.79 256.883,12.7 261.556,11.355 C266.229,10.011 279.283,10 279.283,10 L290.655,24.565 L288.315,39.129 L293.883,53.393 L293.883,53.394 Z M271.888,100.874 L272.283,101.694 L294.383,150.224 L295.09,153.757 L294.096,155.207 L284.372,160.354 L279.242,157.996 L271.657,146.928 L266.687,138.836 C266.687,138.836 265.022,132.478 264.797,129.1 C264.671,127.24 262.304,123.135 260.202,119.823 L265,114.233 L269.457,108.543 L271.887,100.873 L271.888,100.874 Z" id="Combined-Shape"></path>
                    </g>
                    <polyline id="fence" stroke="#282E35" points="645.882154 1582.62305 656.013929 1599.16131 668.487383 1596.48477 644.145079 1553.3974 648.121516 1534.41282 683.009517 1600.58445 697.185165 1599.29618 640.729064 1493.43227 646.272821 1482.3122 708.907515 1601.78668 722.285551 1600.41702 643.675348 1446.42427 643.675348 1425.11129 734.828767 1601.11697 748.296737 1601.11697 643.247474 1393.50046 644.624112 1372.09715 758.433919 1601.38439 772.079376 1601.38439 644.561326 1341.40449 647.635507 1323.44076 785.492293 1602.70987 800.007624 1602.70987 658.539315 1315.48788 673.296314 1314.91118 810.818242 1600.79374 826.077528 1600.79374 681.95611 1311.40215 697.287483 1310.76034 839.092801 1602.45873 854.019554 1599.95427 708.563355 1309.6302 722.797139 1309.00699 863.2607 1599.23572 877.840969 1598.58228 733.500963 1306.0514 747.544063 1306.35138 890.026073 1599.15898 904.529604 1597.68003 757.885125 1301.48199 773.097902 1301.70058 915.670603 1597.75211 924.07693 1576.68397 781.476324 1295.43595 794.740415 1296.28007 921.737576 1553.02999 923.883921 1521.96727 808.016133 1289.72243 823.054506 1290.67352 922.670062 1503.5687 924.07693 1474.31049 835.039626 1289.72243 848.254884 1289.84568 925.081503 1451.26111 917.675099 1399.81392 861.528276 1289.66895 874.748185 1288.37603 919.00988 1383.57797 919.356364 1345.04374 883.728886 1281.49981 897.388295 1282.79506 916.798423 1322.98033 965.322579 1578.03968 987.853396 1600.10309 1006.34034 1598.16836 968.336299 1560.51081 969.915247 1532.79899 1039.07269 1601.69367 1060.39197 1598.39625 970.217549 1503.91983 972.196466 1478.15671 1086.42252 1592.80366 1113.41674 1591.58586 972.103744 1450.90503 973.406651 1422.90081 1142.73902 1593.32399 1171.22529 1593.20003 970.405559 1392.8045 971.745652 1363.91606 1201.54886 1594.62827 1228.77905 1594.49605 970.328431 1336.38012 972.917998 1310.31738 1258.44158 1595.6145 1286.56902 1594.50898 959.042996 1267.00244 991.339267 1269.40098 1318.00328 1597.95217 1342.48056 1593.57392 1014.2021 1266.63961 1049.29382 1269.79546 1373.69079 1598.01061 1398.00979 1592.60963 1067.9586 1263.64448 1105.46104 1269.15747 1431.66726 1599.01142 1457.18918 1595.4757 1122.49189 1260.77841 1160.07468 1268.58523 1487.17214 1598.06418 1510.68026 1594.71353 1182.50651 1264.92533 1220.06252 1271.12744 1544.60315 1598.91645 1568.52524 1596.18431 1238.00895 1263.01137 1272.61366 1268.24676 1600.75333 1598.30038 1613.53498 1580.9059 1295.11854 1264.07549 1328.61286 1268.69968 1619.5983 1560.83203 1602.78174 1512.94891 1354.69484 1267.52598 1385.70297 1269.72728 1601.78579 1486.60637 1602.59424 1457.78981 1408.9968 1266.77841 1444.77522 1269.06007 1604.6543 1433.66318 1603.4319 1400.37827 1465.98951 1267.52354 1501.68513 1271.52435 1604.54472 1376.91642 1603.3004 1343.06901 1523.65185 1269.50325 1557.90348 1271.9237 1603.78255 1319.60715 1605.08044 1289.26381 1580.4181 1268.71185 1627.00577 1271.97484 1661.63239 1572.79064 1675.29555 1596.13561 1687.59263 1596.13561 1663.14213 1539.89534 1663.19814 1514.61206 1699.90051 1597.61009 1713.36929 1597.04037 1660.41342 1477.33131 1661.39558 1456.73581 1723.77626 1598.51185 1736.57396 1594.63567 1660.30857 1422.16648 1661.65247 1403.68208 1746.55452 1595.51296 1760.93554 1595.51122 1661.47597 1368.21973 1662.21171 1348.16074 1771.63961 1596.78347 1785.93675 1595.78035 1661.68917 1310.7166 1662.23443 1290.9215 1797.90259 1596.91804 1813.1312 1597.1295 1670.82739 1277.83195 1684.42724 1280.46384 1822.29738 1596.3588 1836.65918 1596.23822 1696.14317 1280.33277 1711.5046 1284.61615 1845.26438 1595.68248 1858.43082 1595.91142 1722.3642 1284.90275 1733.36536 1286.9824 1869.92655 1596.11064 1883.62426 1597.07357 1748.94175 1290.61742 1760.60175 1292.50308 1893.01238 1596.11414 1908.64644 1596.96872 1772.95031 1293.59184 1787.00454 1296.20101 1917.88602 1598.8369 1932.63928 1599.07458 1798.24861 1296.43693 1812.13682 1300.64341 1936.37915 1585.15143 1934.97757 1548.63876 1823.61682 1300.31836 1838.29843 1305.95613 1934.13698 1528.33161 1935.49836 1498.85479 1846.10672 1307.57266 1861.20951 1313.46907 1935.47914 1479.59796 1936.15895 1447.58711 1871.68464 1313.14402 1886.02372 1315.80212 1936.45779 1430.66507 1938.0184 1398.80103 1897.64528 1317.55147 1911.43212 1320.57832 1935.70807 1379.02515 1937.06771 1347.22402 1922.35464 1319.9352 1941.24098 1323.75197 1940.62233 1573.68366 1926.3217 1603.88748 1913.35623 1602.80396 1945.48416 1539.88152 1935.14534 1535.45309 1901.39389 1604.09544 1887.59831 1602.92105 1944.73794 1486.85226 1945.61698 1463.36447 1874.80586 1603.44533 1860.86348 1603.31601 1945.48766 1433.72513 1945.61698 1409.03849 1848.90114 1601.7921 1837.08909 1601.1018 1945.93679 1380.70285 1945.66941 1357.50692 1825.57938 1601.38141 1810.7999 1601.682 1947.84867 1324.2011 1940.32524 1317.13554 1799.85117 1600.67888 1784.6082 1600.67888 1926.29548 1313.43587 1913.46091 1313.43587 1772.81924 1600.95849 1759.9499 1599.50798 1900.76825 1311.04864 1888.57872 1308.97074 1747.05958 1600.48315 1734.03644 1599.71071 1875.5381 1308.99346 1862.55691 1306.72158 1720.18144 1600.81344 1705.59595 1600.03401 1850.5299 1306.234 1840.18934 1301.86324 1694.74508 1597.60834 1680.39838 1597.74452 1828.83399 1295.93563 1815.86227 1293.54848 1668.64047 1596.58766 1655.4033 1590.62623 1803.96338 1291.95582 1791.68844 1289.35299 1657.30934 1563.99337 1654.11848 1538.57896 1777.72315 1286.3815 1765.1035 1284.44044 1647.68884 1529.94466 1648.7414 1499.19004 1752.62396 1282.26528 1740.74903 1281.61273 1661.66151 1444.18602 1654.67518 1426.69438 1728.15704 1277.07437 1716.3411 1276.65593 1658.51674 1395.51763 1653.20417 1375.56326 1703.72699 1273.45217 1692.41429 1272.38671 1659.47344 1336.29047 1655.00145 1322.31043 1677.81672 1269.12212 1616.52921 1567.75162 1576.02513 1602.41395 1553.17031 1602.8911 1618.85297 1530.54178 1612.38849 1512.61485 1525.86207 1598.63986 1498.58888 1600.95283 1619.10907 1476.70977 1616.6667 1457.09528 1470.22389 1599.28954 1446.38511 1593.42892 1619.30317 1422.67557 1619.93128 1393.51263 1412.19455 1602.04193 1382.61646 1602.22255 1622.38444 1363.27947 1615.18941 1341.67819 1354.40513 1599.51059 1323.6382 1600.54847 1615.54795 1310.4422 1615.57221 1285.44693 1294.37013 1602.0635 1264.19088 1601.78853 1608.07794 1262.22549 1583.03955 1261.06361 1242.65161 1598.72612 1212.93334 1599.06309 1554.88483 1261.09866 1525.83781 1261.09866 1189.15387 1596.87412 1163.33909 1598.34332 1495.15176 1262.73499 1467.3394 1260.52446 1131.55585 1596.32149 1106.50937 1596.32149 1435.07362 1263.3038 1414.08698 1261.12831 1074.6803 1596.68272 1047.54729 1596.14626 1380.24148 1262.19853 1355.46996 1260.45706 1015.17098 1602.03384 981.969764 1604.99381 1328.496 1259.66181 1298.19005 1259.66181 969.321169 1590.64418 958.602751 1572.19872 1272.351 1260.17131 1245.33121 1259.10378 964.999835 1536.41049 963.932306 1507.17477 1215.15196 1261.73216 1187.19457 1259.94217 967.086368 1478.6669 963.854129 1451.5231 1156.29502 1261.27927 1135.92032 1257.86103 963.174792 1426.99421 962.589808 1398.0658 1100.95337 1262.04488 1081.98047 1258.60506 961.096347 1373.545 960.260655 1343.00182 1044.73829 1262.49237 1017.10116 1259.0256 960.557191 1315.94698 925.081503 1565.19872 905.457726 1603.76562 893.513768 1604.48707 928.419786 1512.87932 922.107123 1509.16386 881.199066 1605.95602 867.868326 1605.40291 929.077104 1463.07141 921.327559 1457.94312 856.629782 1606.55923 844.240931 1605.91794 925.365659 1416.17534 924.313549 1400.44979 833.463312 1604.94399 816.743775 1605.85983 928.004954 1357.24312 926.692321 1338.71195 807.40905 1608.35082 789.210546 1607.77166 924.337597 1307.90015 919.356364 1292.50308 781.735552 1605.11233 768.348699 1605.23858 915.265399 1274.70757 902.573942 1274.55526 756.711356 1608.17447 742.947747 1607.77366 891.461651 1273.24263 879.79024 1274.88592 733.318432 1607.47106 721.693113 1606.85983 862.225006 1283.30682 849.555592 1283.25872 709.89144 1606.39089 696.482543 1605.59129 839.403227 1283.79179 826.681709 1284.17055 686.690902 1603.97805 674.358163 1603.64739 808.134505 1297.60951 800.004197 1295.85198 663.30399 1603.11833 652.828978 1602.72153 788.326773 1290.51528 776.791635 1292.92611 646.351986 1589.1463 644.137544 1562.19424 762.180326 1297.87003 750.597091 1298.20069 649.734771 1527.76918 649.20571 1498.50448 741.222286 1300.35902 728.811391 1301.42316 649.925153 1476.98532 649.374048 1447.35187 717.226152 1302.30292 703.743107 1305.77789 650.16764 1424.32168 649.746795 1395.65217 687.985498 1314.28496 672.919277 1321.90825 649.750803 1371.90654 645.498273 1352.86234 659.578517 1324.07459"></polyline>
                    <g id="cageFront" transform="translate(615.000000, 1251.000000)">
                        <g id="right_piece" transform="translate(999.000000, 1.000000)">
                            <g id="frame">
                                <polygon id="frame_pieces" fill="#3A3A3A" points="0 3 6.516 0.183 21.876 2.971 21.876 364 0 364"></polygon>
                                <polygon id="frame_pieces" fill="#4A4747" points="6.516 0.183 28.391 4.153 28.391 364 6.517 364"></polygon>
                                <polygon id="frame_pieces" fill="#525A5E" points="318.346 57.794 330.006 58.512 341 69.147 341 364 318.346 364"></polygon>
                                <polygon id="frame_pieces" fill="#434341" points="318.346 57.794 330 58.512 330 364 318.346 364"></polygon>
                                <polygon id="frame_pieces" fill="#363636" points="28.39 8.098 323.743 60.411 323.743 78.071 28.39 28.8"></polygon>
                                <polygon id="frame_pieces" fill="#434A4E" points="28.39 8.098 323.743 60.411 323.743 74.3 28.391 23"></polygon>
                                <polygon id="frame_pieces" fill="#434B4E" points="32.39 339.353 323.743 342.976 323.743 363.159 32.391 363.013"></polygon>
                            </g>
                        </g>
                        <g id="left_piece" transform="translate(14.000000, 1.000000)">
                            <g id="frame">
                                <polygon id="frame_pieces" fill="#3A3A3A" points="341 3 334.484 0.183 319.124 2.971 319.124 364 341 364"></polygon>
                                <polygon id="frame_pieces" fill="#4A4747" points="334.484 0.183 312.609 4.153 312.609 364 334.483 364"></polygon>
                                <polygon id="frame_pieces" fill="#303030" points="22.654 57.794 10.994 58.512 0 69.147 0 364 22.654 364"></polygon>
                                <polygon id="frame_pieces" fill="#4B4747" points="22.654 57.794 11 58.512 11 364 22.654 364"></polygon>
                                <polygon id="frame_pieces" fill="#363636" points="312.61 8.098 17.256 60.41 17.256 78.07 312.61 28.8"></polygon>
                                <polygon id="frame_pieces" fill="#303030" points="312.61 8.098 17.256 60.41 17.256 74.3 312.608 23"></polygon>
                                <polygon id="frame_pieces" fill="#302F2F" points="308.61 339.353 17.257 342.976 17.257 363.159 308.609 363.013"></polygon>
                            </g>
                        </g>
                        <g id="front_piece" transform="translate(299.000000, 0.000000)">
                            <g id="frame">
                                <polygon id="frame_pieces" fill="#363636" points="61 4 687 4 687 25 61 25"></polygon>
                                <polygon id="frame_pieces" fill="#202020" points="61 20 687 20 687 24 61 24"></polygon>
                                <polygon id="frame_pieces" fill="#3F3F3F" points="56 340 694 340 694 364 56 364"></polygon>
                                <polygon id="frame_pieces" fill="#3A3A3A" points="0 4 14 0 47 0 47 365 0 365"></polygon>
                                <polygon id="frame_pieces" fill="#4A4747" points="14 0 61 0 61 365 14 365"></polygon>
                                <polygon id="frame_pieces" fill="#525A5E" points="684 0 728 0 752 8 752 365 684 365"></polygon>
                                <polygon id="frame_pieces" fill="#434341" points="684 0 728 0 728 365 684 365"></polygon>
                            </g>
                        </g>
                        <g id="base" transform="translate(0.000000, 363.000000)">
                            <polygon id="middle_piece" fill="#000000" points="284 0 1080 0 1080 240 284 240"></polygon>
                            <polygon id="middle_highlight" fill="#5D5A5A" points="284 0 1079 0 1079 3 284 3"></polygon>
                            <polygon id="middle_shadow" fill="#393838" points="1075 0 1080 0 1080 240 1075 240"></polygon>
                            <path d="M1080.88,6.993 C1080.947,3.131 1084.143,0 1088.006,0 L1363,0 L1363,240 L1078,177 L1080.88,6.993 L1080.88,6.993 Z" id="right_piece" fill="#000000" transform="translate(1220.500000, 120.000000) scale(-1, 1) translate(-1220.500000, -120.000000) "></path>
                            <path d="M1360.12,7.008 C1360.053,3.138 1356.857,0 1352.994,0 L1078,0 L1078,234 L1080.03,2.993 L1351.007,2.025 C1354.869,2.011 1358.972,4.972 1360.145,8.558 L1360.119,7.008 L1360.12,7.008 Z" id="right_highlight" fill="#838E94"></path>
                            <path d="M2.88,6.993 C2.948,3.13 6.144,0 10.007,0 L285,0 L285,240 L0,177 L2.88,6.993 Z" id="left_piece" fill="#000000"></path>
                            <path d="M14.496,0.017 C13.67,0.007 13.664,0 14.496,0 L285,0 L285,3 L14.496,0.017 Z" id="left_highlight" fill="#5D5B5B"></path>
                            <path d="M283.2,0.992 C283.2,0.444 283.654,0 284.205,0 L285,0 L285,240 L283,240 L283.2,0.992 Z" id="left_shadow" fill="#3A3838"></path>
                            <polygon id="bottom_shadow" fill="#373636" points="284 234 1080 234 1362.915 176.003 1363 177 1080 240 283 240 0 177 0.065 176.145"></polygon>
                        </g>
                    </g>
                </g>
            </g>
        </g>
    </g>
</svg>